<svg xmlns="http://www.w3.org/2000/svg"
 xmlns:xlink="http://www.w3.org/1999/xlink"
 width="23px" height="31px"  viewBox="0 0 23 31">
<path fill-rule="evenodd"  fill="#ffffff"
 d="M11.361053,1.9942627 C5.673706,1.8093262 1.0030212,6.1968994 1.0030212,11.635376 C1.0030212,17.807251 7.1502075,22.286621 10.595581,28.728516 C10.77066,29.055542 11.259552,29.055542 11.4348755,28.729004 C14.551788,22.932251 19.879028,19.045532 20.866516,13.461792 C21.888489,7.6829834 17.441193,2.1918945 11.361053,1.9942627 ZM11.014648,16.688477 C8.118378,16.688477 5.770508,14.425781 5.770508,11.635376 C5.770508,8.84436 8.118378,6.5823975 11.014648,6.5823975 C13.911041,6.5823975 16.258911,8.84436 16.258911,11.635376 C16.258911,14.425781 13.911041,16.688477 11.014648,16.688477 Z"/>
</svg>