<svg xmlns="http://www.w3.org/2000/svg"
 xmlns:xlink="http://www.w3.org/1999/xlink"
 width="19px" height="18px"  viewBox="0 0 19 18">
<path fill-rule="evenodd"  fill="#82c9ea"
 d="M9.4991455,2.0 C5.362915,2.0 1.9978027,5.187378 1.9978027,9.105103 C1.9978027,10.474609 2.4094238,11.801147 3.1899414,12.948364 C3.0422363,14.668701 2.6461182,15.945679 2.071045,16.55066 C1.9951172,16.630615 1.9760742,16.753052 2.0240479,16.854126 C2.0666504,16.944458 2.1540527,16.999878 2.2479248,16.999878 C2.2593994,16.999878 2.270874,16.999146 2.2827148,16.997192 C2.3839111,16.982178 4.736328,16.625977 6.437866,15.592285 C7.4039307,16.002441 8.433105,16.210327 9.4991455,16.210327 C13.635254,16.210327 17.000244,13.022949 17.000244,9.105103 C17.000244,5.187378 13.635254,2.0 9.4991455,2.0 ZM5.998535,10.157837 C5.4468994,10.157837 4.998413,9.685791 4.998413,9.105103 C4.998413,8.524536 5.4468994,8.05249 5.998535,8.05249 C6.550049,8.05249 6.998657,8.524536 6.998657,9.105103 C6.998657,9.685791 6.550049,10.157837 5.998535,10.157837 ZM9.4991455,10.157837 C8.94751,10.157837 8.498901,9.685791 8.498901,9.105103 C8.498901,8.524536 8.94751,8.05249 9.4991455,8.05249 C10.050537,8.05249 10.499268,8.524536 10.499268,9.105103 C10.499268,9.685791 10.050537,10.157837 9.4991455,10.157837 ZM12.999634,10.157837 C12.447998,10.157837 11.99939,9.685791 11.99939,9.105103 C11.99939,8.524536 12.447998,8.05249 12.999634,8.05249 C13.55127,8.05249 13.999756,8.524536 13.999756,9.105103 C13.999756,9.685791 13.55127,10.157837 12.999634,10.157837 Z"/>
</svg>