<svg xmlns="http://www.w3.org/2000/svg"
 xmlns:xlink="http://www.w3.org/1999/xlink"
 width="18px" height="17px"  viewBox="0 0 18 17">
<path fill-rule="evenodd"  fill="#e6cfbf"
 d="M7.057617,9.723633 C7.057617,9.548279 6.9121704,9.406128 6.732727,9.406128 C6.732727,9.406128 5.598572,9.406128 5.598572,9.406128 C5.4193726,9.406128 5.2738037,9.548279 5.2738037,9.723633 C5.2738037,9.723633 5.2738037,10.8324585 5.2738037,10.8324585 C5.2738037,11.007996 5.4193726,11.1501465 5.598572,11.1501465 C5.598572,11.1501465 6.732727,11.1501465 6.732727,11.1501465 C6.9121704,11.1501465 7.057617,11.007996 7.057617,10.8324585 C7.057617,10.8324585 7.057617,9.723633 7.057617,9.723633 C7.057617,9.723633 7.057617,9.723633 7.057617,9.723633 ZM9.891724,9.723633 C9.891724,9.548279 9.746277,9.406128 9.5672,9.406128 C9.5672,9.406128 8.432983,9.406128 8.432983,9.406128 C8.253601,9.406128 8.108154,9.548279 8.108154,9.723633 C8.108154,9.723633 8.108154,10.8324585 8.108154,10.8324585 C8.108154,11.007996 8.253601,11.1501465 8.432983,11.1501465 C8.432983,11.1501465 9.5672,11.1501465 9.5672,11.1501465 C9.746277,11.1501465 9.891724,11.007996 9.891724,10.8324585 C9.891724,10.8324585 9.891724,9.723633 9.891724,9.723633 ZM12.726074,9.723633 C12.726074,9.548279 12.580505,9.406128 12.401184,9.406128 C12.401184,9.406128 11.267212,9.406128 11.267212,9.406128 C11.087769,9.406128 10.9422,9.548279 10.9422,9.723633 C10.9422,9.723633 10.9422,10.8324585 10.9422,10.8324585 C10.9422,11.007996 11.087769,11.1501465 11.267212,11.1501465 C11.267212,11.1501465 12.401184,11.1501465 12.401184,11.1501465 C12.580505,11.1501465 12.726074,11.007996 12.726074,10.8324585 C12.726074,10.8324585 12.726074,9.723633 12.726074,9.723633 ZM7.057617,12.495239 C7.057617,12.31958 6.9121704,12.177551 6.732727,12.177551 C6.732727,12.177551 5.598572,12.177551 5.598572,12.177551 C5.4193726,12.177551 5.2738037,12.31958 5.2738037,12.495239 C5.2738037,12.495239 5.2738037,13.60376 5.2738037,13.60376 C5.2738037,13.779297 5.4193726,13.921448 5.598572,13.921448 C5.598572,13.921448 6.732727,13.921448 6.732727,13.921448 C6.9121704,13.921448 7.057617,13.779297 7.057617,13.60376 C7.057617,13.60376 7.057617,12.495239 7.057617,12.495239 C7.057617,12.495239 7.057617,12.495239 7.057617,12.495239 ZM9.891724,12.495239 C9.891724,12.31958 9.746277,12.177551 9.5672,12.177551 C9.5672,12.177551 8.432983,12.177551 8.432983,12.177551 C8.253601,12.177551 8.108154,12.31958 8.108154,12.495239 C8.108154,12.495239 8.108154,13.60376 8.108154,13.60376 C8.108154,13.779297 8.253601,13.921448 8.432983,13.921448 C8.432983,13.921448 9.5672,13.921448 9.5672,13.921448 C9.746277,13.921448 9.891724,13.779297 9.891724,13.60376 C9.891724,13.60376 9.891724,12.495239 9.891724,12.495239 ZM12.726074,12.495239 C12.726074,12.31958 12.580505,12.177551 12.401428,12.177551 C12.401428,12.177551 11.267212,12.177551 11.267212,12.177551 C11.087769,12.177551 10.9422,12.31958 10.9422,12.495239 C10.9422,12.495239 10.9422,13.60376 10.9422,13.60376 C10.9422,13.779297 11.087769,13.921448 11.267212,13.921448 C11.267212,13.921448 12.401428,13.921448 12.401428,13.921448 C12.580505,13.921448 12.726074,13.779297 12.726074,13.60376 C12.726074,13.60376 12.726074,12.495239 12.726074,12.495239 C12.726074,12.495239 12.726074,12.495239 12.726074,12.495239 ZM14.753845,3.5587158 C14.753845,3.5587158 14.753845,5.2522583 14.753845,5.2522583 C14.753845,6.017761 14.118713,6.6346436 13.33606,6.6346436 C13.33606,6.6346436 12.441711,6.6346436 12.441711,6.6346436 C11.658936,6.6346436 11.015564,6.017761 11.015564,5.2522583 C11.015564,5.2522583 11.015564,3.5526123 11.015564,3.5526123 C11.015564,3.5526123 6.984375,3.5526123 6.984375,3.5526123 C6.984375,3.5526123 6.984375,5.2522583 6.984375,5.2522583 C6.984375,6.017761 6.3409424,6.6346436 5.5582886,6.6346436 C5.5582886,6.6346436 4.6636963,6.6346436 4.6636963,6.6346436 C3.8810425,6.6346436 3.2460327,6.017761 3.2460327,5.2522583 C3.2460327,5.2522583 3.2460327,3.5587158 3.2460327,3.5587158 C2.5620117,3.5788574 1.9998779,4.1324463 1.9998779,4.812683 C1.9998779,4.812683 1.9998779,14.73761 1.9998779,14.73761 C1.9998779,15.430786 2.5744019,15.999878 3.2832031,15.999878 C3.2832031,15.999878 14.716675,15.999878 14.716675,15.999878 C15.424377,15.999878 16.0,15.429626 16.0,14.73761 C16.0,14.73761 16.0,4.812683 16.0,4.812683 C16.0,4.1324463 15.437866,3.5788574 14.753845,3.5587158 ZM14.33844,14.119629 C14.33844,14.419128 14.090088,14.662048 13.78363,14.662048 C13.78363,14.662048 4.1918945,14.662048 4.1918945,14.662048 C3.885437,14.662048 3.637085,14.419128 3.637085,14.119629 C3.637085,14.119629 3.637085,8.993042 3.637085,8.993042 C3.637085,8.693359 3.885437,8.450317 4.1918945,8.450317 C4.1918945,8.450317 13.78363,8.450317 13.78363,8.450317 C14.089966,8.450317 14.33844,8.693359 14.33844,8.993042 C14.33844,8.993042 14.33844,14.119629 14.33844,14.119629 C14.33844,14.119629 14.33844,14.119629 14.33844,14.119629 ZM4.6606445,5.7266846 C4.6606445,5.7266846 5.545288,5.7266846 5.545288,5.7266846 C5.813843,5.7266846 6.031494,5.514099 6.031494,5.251526 C6.031494,5.251526 6.031494,2.4752808 6.031494,2.4752808 C6.031494,2.2125854 5.813843,1.999939 5.545288,1.999939 C5.545288,1.999939 4.6606445,1.999939 4.6606445,1.999939 C4.392029,1.999939 4.1743774,2.2125854 4.1743774,2.4752808 C4.1743774,2.4752808 4.1743774,5.251526 4.1743774,5.251526 C4.1743774,5.514099 4.392029,5.7266846 4.6606445,5.7266846 ZM12.430359,5.7266846 C12.430359,5.7266846 13.315002,5.7266846 13.315002,5.7266846 C13.583374,5.7266846 13.801025,5.514099 13.801025,5.251526 C13.801025,5.251526 13.801025,2.4752808 13.801025,2.4752808 C13.801025,2.2125854 13.583374,1.999939 13.315002,1.999939 C13.315002,1.999939 12.430359,1.999939 12.430359,1.999939 C12.161865,1.999939 11.944092,2.2125854 11.944092,2.4752808 C11.944092,2.4752808 11.944092,5.251526 11.944092,5.251526 C11.944092,5.514099 12.161865,5.7266846 12.430359,5.7266846 Z"/>
</svg>