<svg xmlns="http://www.w3.org/2000/svg" width="54" height="42" viewBox="0 0 54 42"><defs><clipPath id="nru4a"><path fill="#fff" d="M.024 40.62V1.38h48.952v39.24zm36.335-25.54l.98 2.105c.298.64-.013 1.385-.695 1.664a1.424 1.424 0 0 1-.54.106c-.519 0-1.014-.283-1.235-.758l-1.452-3.117H16.284L21.166 4.6c.298-.64-.013-1.383-.695-1.663-.682-.28-1.477.013-1.775.652l-5.321 11.423-.032.068.032-.068h2.94l-1.483 3.185c-.22.475-.716.758-1.236.758-.18 0-.363-.034-.538-.106-.682-.28-.994-1.024-.696-1.664l.98-2.105H3.8c-1.248 0-2.175 1.06-1.902 2.175l5.026 20.52c.2.814.99 1.394 1.902 1.394h32.051c.912 0 1.703-.58 1.902-1.394l5.026-20.52c.273-1.115-.654-2.175-1.902-2.175zm-2.942 0l-.032-.068.032.068zm-.032-.068h2.941L31.005 3.59c-.298-.64-1.092-.932-1.775-.652-.682.279-.993 1.024-.695 1.663l4.85 10.412zm2.973.068l-.031-.068zM18.112 32.43c0 .698-.603 1.264-1.348 1.264-.744 0-1.348-.566-1.348-1.263v-9.265c0-.698.604-1.264 1.348-1.264.745 0 1.348.566 1.348 1.264zm8.086 0c0 .698-.603 1.264-1.348 1.264-.744 0-1.347-.566-1.347-1.263v-9.265c0-.698.603-1.264 1.347-1.264.745 0 1.348.566 1.348 1.264zm8.087 0c0 .698-.603 1.264-1.348 1.264-.745 0-1.348-.566-1.348-1.263v-9.265c0-.698.603-1.264 1.348-1.264.745 0 1.348.566 1.348 1.264z"/></clipPath></defs><g><g><path fill="none" stroke="#fff" stroke-miterlimit="20" stroke-width="4" d="M45.902 15.08c1.248 0 2.175 1.06 1.902 2.175l-5.026 20.52c-.2.814-.99 1.394-1.902 1.394H8.825c-.912 0-1.703-.58-1.902-1.394l-5.026-20.52c-.273-1.115.654-2.175 1.902-2.175h9.544l-.98 2.105c-.3.64.013 1.385.695 1.664.175.072.358.106.538.106.52 0 1.015-.283 1.236-.758l1.483-3.185h-2.94L18.696 3.59c.298-.64 1.093-.932 1.775-.652.682.28.993 1.024.695 1.663l-4.882 10.48h17.133l1.452 3.117c.221.475.716.758 1.236.758.18 0 .363-.034.539-.106.682-.28.993-1.024.695-1.664l-.98-2.105zm-12.485 0l-.032-.068h0l.032.068zM28.535 4.6c-.298-.64.013-1.384.695-1.663.683-.28 1.477.013 1.775.652l5.321 11.423h-2.94zm7.823 10.48h0l-.031-.068h0zm-23.015 0l.031-.068h0l-.031.068zm4.769 8.086c0-.698-.603-1.264-1.348-1.264-.744 0-1.348.566-1.348 1.264v9.265c0 .697.604 1.263 1.348 1.263.745 0 1.348-.566 1.348-1.263zm8.086 0c0-.698-.603-1.264-1.348-1.264-.744 0-1.347.566-1.347 1.264v9.265c0 .697.603 1.263 1.347 1.263.745 0 1.348-.566 1.348-1.263zm8.087 0c0-.698-.603-1.264-1.348-1.264-.745 0-1.348.566-1.348 1.264v9.265c0 .697.603 1.263 1.348 1.263.745 0 1.348-.566 1.348-1.263z" clip-path="url(&quot;#nru4a&quot;)"/></g><g><path fill="#fff" d="M47 21.562c3.866 0 7 3.009 7 6.72C54 31.991 50.866 35 47 35s-7-3.008-7-6.719c0-3.71 3.134-6.719 7-6.719z"/></g><g><path fill="none" stroke="#c4a089" stroke-linecap="round" stroke-linejoin="round" stroke-miterlimit="20" stroke-width="2" d="M47 25.273v5.454"/></g><g><path fill="none" stroke="#c4a089" stroke-linecap="round" stroke-linejoin="round" stroke-miterlimit="20" stroke-width="2" d="M49.727 28h-5.454"/></g></g></svg>