<svg xmlns="http://www.w3.org/2000/svg"
 xmlns:xlink="http://www.w3.org/1999/xlink"
 width="31px" height="24px"  viewBox="0 0 31 24">
<path fill-rule="evenodd"  fill="#ffffff"
 d="M11.376343,9.202881 C11.172424,9.500244 10.859436,9.684204 10.520813,9.704712 C10.520813,9.704712 5.9658203,9.985107 5.9658203,9.985107 C5.9658203,9.985107 5.9658203,21.101685 5.9658203,21.101685 C5.9658203,21.101685 14.86441,22.999756 14.86441,22.999756 C14.86441,22.999756 14.86441,4.112671 14.86441,4.112671 C14.86441,4.112671 11.376343,9.202881 11.376343,9.202881 ZM21.510437,9.704712 C21.171692,9.684204 20.858826,9.500244 20.654877,9.202881 C20.654877,9.202881 17.166962,4.113159 17.166962,4.113159 C17.166962,4.113159 17.166962,22.999756 17.166962,22.999756 C17.166962,22.999756 26.065643,21.101685 26.065643,21.101685 C26.065643,21.101685 26.065643,9.985596 26.065643,9.985596 C26.065643,9.985596 21.510437,9.704712 21.510437,9.704712 ZM26.489075,3.2141113 C26.489075,3.2141113 18.603424,2.0039062 18.603424,2.0039062 C18.603424,2.0039062 19.109467,2.7420654 19.109467,2.7420654 C19.109467,2.7420654 22.173157,7.213135 22.173157,7.213135 C22.173157,7.213135 25.366638,7.410034 25.366638,7.410034 C25.366638,7.410034 29.999786,7.6949463 29.999786,7.6949463 C29.999786,7.6949463 26.489075,3.2141113 26.489075,3.2141113 ZM5.4522095,3.2141113 C5.4522095,3.2141113 1.9998779,7.6970215 1.9998779,7.6970215 C1.9998779,7.6970215 6.664612,7.410034 6.664612,7.410034 C6.664612,7.410034 9.857849,7.213135 9.857849,7.213135 C9.857849,7.213135 12.921539,2.7425537 12.921539,2.7425537 C12.921539,2.7425537 13.43045,1.9997559 13.43045,1.9997559 C13.43045,1.9997559 5.4522095,3.2141113 5.4522095,3.2141113 Z"/>
</svg>