<svg xmlns="http://www.w3.org/2000/svg"
 xmlns:xlink="http://www.w3.org/1999/xlink"
 width="18px" height="24px"  viewBox="0 0 18 24">
<path fill-rule="evenodd"  fill="#eccdba"
 d="M8.763336,1.9957275 C4.501892,1.8583984 1.0023193,5.111206 1.0023193,9.142944 C1.0023193,13.718506 5.6082153,17.039307 8.189758,21.815063 C8.320923,22.057495 8.687256,22.057495 8.8186035,21.81543 C11.154022,17.517822 15.145599,14.636597 15.885468,10.496948 C16.651184,6.2128906 13.319,2.1419678 8.763336,1.9957275 ZM8.503784,12.88916 C6.3336487,12.88916 4.574463,11.211792 4.574463,9.142944 C4.574463,7.0738525 6.3336487,5.3970947 8.503784,5.3970947 C10.67395,5.3970947 12.433105,7.0738525 12.433105,9.142944 C12.433105,11.211792 10.67395,12.88916 8.503784,12.88916 Z"/>
</svg>