<svg xmlns="http://www.w3.org/2000/svg"
 xmlns:xlink="http://www.w3.org/1999/xlink"
 width="19px" height="16px"  viewBox="0 0 19 16">
<path fill-rule="evenodd"  fill="#e07894"
 d="M16.73059,2.2160645 C16.417603,1.921936 15.936768,1.90802 15.606567,2.179016 C15.606567,2.179016 7.814331,8.596497 7.814331,8.596497 C7.814331,8.596497 3.2854004,6.151123 3.2854004,6.151123 C2.9406738,5.9448853 2.4993896,6.0074463 2.2248535,6.3015747 C1.9522705,6.5949097 1.9224854,7.038574 2.1547852,7.3655396 C2.1547852,7.3655396 7.1188965,14.641846 7.1188965,14.641846 C7.276367,14.864014 7.5318604,14.997192 7.8050537,15.0 C7.807129,15.0 7.8096924,15.0 7.812378,15.0 C8.082886,15.0 8.3376465,14.87207 8.497681,14.65387 C8.497681,14.65387 16.83313,3.3320312 16.83313,3.3320312 C17.085205,2.987976 17.042969,2.5093994 16.73059,2.2160645 Z"/>
</svg>