<svg xmlns="http://www.w3.org/2000/svg"
 xmlns:xlink="http://www.w3.org/1999/xlink"
 width="18px" height="17px"  viewBox="0 0 18 17">
<path fill-rule="evenodd"  fill="#82c9ea"
 d="M1.9998779,13.043945 C1.9998779,13.043945 1.9998779,15.999268 1.9998779,15.999268 C1.9998779,15.999268 4.952759,15.999268 4.952759,15.999268 C4.952759,15.999268 13.500732,7.365967 13.500732,7.365967 C13.500732,7.365967 10.5477295,4.4101562 10.5477295,4.4101562 C10.5477295,4.4101562 1.9998779,13.043945 1.9998779,13.043945 ZM15.75415,5.1103516 C16.064941,4.7993164 16.064941,4.3325195 15.75415,4.02124 C15.75415,4.02124 13.966919,2.2324219 13.966919,2.2324219 C13.656128,1.9213867 13.189819,1.9213867 12.878906,2.2324219 C12.878906,2.2324219 11.480225,3.6325684 11.480225,3.6325684 C11.480225,3.6325684 14.433228,6.588135 14.433228,6.588135 C14.433228,6.588135 15.75415,5.1103516 15.75415,5.1103516 Z"/>
</svg>