<svg xmlns="http://www.w3.org/2000/svg" width="19" height="19" viewBox="0 0 19 19"><g><g opacity=".45"><path fill="#cfcfcf" d="M9.5 0a9.5 9.5 0 1 1 0 19 9.5 9.5 0 0 1 0-19zm.998 11.112c-.186-.177-.278-.41-.277-.696.002-.254.092-.49.27-.71.179-.219.399-.421.66-.607s.52-.388.777-.607c.256-.219.474-.504.654-.856.179-.351.27-.748.272-1.189.005-.782-.282-1.415-.862-1.899-.58-.483-1.37-.727-2.37-.733-1.416-.01-2.56.519-3.43 1.582L7.447 6.91c.546-.68 1.188-1.018 1.928-1.013.406.002.71.092.912.27a.858.858 0 0 1 .3.68c-.001.242-.123.484-.364.725-.24.24-.502.449-.784.623-.283.175-.545.438-.786.79a2.069 2.069 0 0 0-.367 1.187c-.003.573.165 1.06.506 1.458zm.295 2.747a1.326 1.326 0 0 0-.368-.945 1.182 1.182 0 0 0-.888-.402 1.182 1.182 0 0 0-.893.391 1.325 1.325 0 0 0-.38.94c-.003.364.12.679.368.945.248.266.544.4.888.402.344.002.641-.128.893-.391.251-.263.378-.576.38-.94z"/></g></g></svg>