<svg xmlns="http://www.w3.org/2000/svg"
 xmlns:xlink="http://www.w3.org/1999/xlink"
 width="27px" height="23px"  viewBox="0 0 27 23">
<path fill-rule="evenodd"  fill="#82c9ea"
 d="M23.495972,2.1472168 C23.714111,2.0021973 24.261719,1.8745117 24.582031,2.223877 C24.582031,2.223877 25.173096,2.9536133 25.173096,2.9536133 C25.458984,3.4279785 25.112793,3.868164 24.88861,4.050537 C23.82306,4.918213 23.048279,5.5893555 22.56482,6.064209 C21.616638,7.043213 20.915833,8.022949 20.453003,8.999756 C20.347168,9.223145 20.61737,9.36499 20.757568,9.410156 C24.251648,10.53418 25.999146,12.515869 25.999146,15.35498 C25.999146,17.027832 25.433228,18.386963 24.302002,19.431885 C23.170166,20.47754 21.752502,21.0 20.049133,21.0 C18.531677,21.0 17.187012,20.3208 16.01593,18.961426 C14.870911,17.681396 14.298828,16.295898 14.298828,14.8063965 C14.298706,10.440674 17.364258,6.2209473 23.495972,2.1472168 ZM10.198181,2.1472168 C10.416443,2.0021973 10.963928,1.8745117 11.284241,2.223877 C11.284241,2.223877 11.875305,2.9536133 11.875305,2.9536133 C12.161194,3.4279785 11.815002,3.868164 11.59082,4.050537 C10.525513,4.918213 9.750366,5.5893555 9.266968,6.064209 C8.318848,7.043213 7.617981,8.022949 7.1550903,8.999756 C7.0492554,9.223145 7.319458,9.36499 7.459717,9.410156 C10.953735,10.53418 12.701233,12.515869 12.701233,15.35498 C12.701233,17.027832 12.135315,18.386963 11.004089,19.431885 C9.872131,20.47754 8.45459,21.0 6.7512207,21.0 C5.2337646,21.0 3.889038,20.3208 2.7180176,18.961426 C1.572998,17.681396 1.0009155,16.295898 1.0009155,14.8063965 C1.0009155,10.440674 4.0664673,6.2209473 10.198181,2.1472168 Z"/>
</svg>