<svg xmlns="http://www.w3.org/2000/svg"
 xmlns:xlink="http://www.w3.org/1999/xlink"
 width="27px" height="23px"  viewBox="0 0 27 23">
<path fill-rule="evenodd"  fill="#82c9ea"
 d="M3.5039062,20.85254 C3.2857666,20.997559 2.7381592,21.125 2.4178467,20.775879 C2.4178467,20.775879 1.8267822,20.046143 1.8267822,20.046143 C1.5408936,19.571777 1.887085,19.131592 2.111206,18.948975 C3.1767578,18.081299 3.951538,17.410156 4.4350586,16.935547 C5.383301,15.956543 6.0841064,14.976807 6.546875,14.0 C6.65271,13.776611 6.3825684,13.634766 6.2423096,13.589844 C2.748291,12.465576 1.0007324,10.483643 1.0007324,7.6445312 C1.0007324,5.972168 1.5666504,4.612549 2.697876,3.567871 C3.829712,2.5222168 5.2474365,1.9997559 6.9506836,1.9997559 C8.468262,1.9997559 9.812866,2.6791992 10.984009,4.038086 C12.128906,5.3186035 12.70105,6.7038574 12.70105,8.1936035 C12.701172,12.559326 9.63562,16.778809 3.5039062,20.85254 ZM16.801758,20.85254 C16.583496,20.997559 16.03601,21.125 15.715698,20.775879 C15.715698,20.775879 15.124512,20.046143 15.124512,20.046143 C14.838745,19.571777 15.184814,19.131592 15.409058,18.948975 C16.474365,18.081299 17.249512,17.410156 17.73291,16.935547 C18.68103,15.956543 19.381836,14.976807 19.844849,14.0 C19.950684,13.776611 19.68042,13.634766 19.540161,13.589844 C16.046143,12.465576 14.298584,10.483643 14.298584,7.6445312 C14.298584,5.972168 14.864502,4.612549 15.99585,3.567871 C17.127686,2.5222168 18.545288,1.9997559 20.248657,1.9997559 C21.766113,1.9997559 23.11084,2.6791992 24.28186,4.038086 C25.42688,5.3186035 25.999023,6.7038574 25.999023,8.1936035 C25.999023,12.559326 22.933472,16.778809 16.801758,20.85254 Z"/>
</svg>