<svg xmlns="http://www.w3.org/2000/svg"
 xmlns:xlink="http://www.w3.org/1999/xlink"
 width="16px" height="16px"  viewBox="0 0 16 16">
<path fill-rule="evenodd"  fill="#ff9eb8"
 d="M13.852295,2.647705 C13.753418,2.548706 13.636169,2.4991455 13.500732,2.4991455 C13.365356,2.4991455 13.248169,2.548706 13.149109,2.647705 C13.149109,2.647705 12.133423,3.6556396 12.133423,3.6556396 C11.576111,3.1295166 10.937744,2.7219238 10.219055,2.4327393 C9.500244,2.1437988 8.760376,1.9992676 7.999939,1.9992676 C6.567505,1.9992676 5.3171997,2.4327393 4.2494507,3.3000488 C3.1813965,4.1674805 2.4782715,5.298828 2.1397705,6.6950684 C2.1397705,6.6950684 2.1397705,6.749634 2.1397705,6.749634 C2.1397705,6.817383 2.1644897,6.8759766 2.2139282,6.925415 C2.2634888,6.9749756 2.3219604,6.999634 2.3897095,6.999634 C2.3897095,6.999634 3.94458,6.999634 3.94458,6.999634 C4.059265,6.999634 4.137207,6.9399414 4.178955,6.8199463 C4.397766,6.2991943 4.5357056,5.994385 4.5931396,5.905884 C4.9577637,5.312134 5.4421997,4.845825 6.0464478,4.50708 C6.650757,4.168579 7.301819,3.9993896 7.999817,3.9993896 C9.046814,3.9993896 9.955811,4.356079 10.726807,5.069824 C10.726807,5.069824 9.6484375,6.147949 9.6484375,6.147949 C9.549683,6.2469482 9.500122,6.3641357 9.500122,6.4995117 C9.500122,6.635132 9.549683,6.7523193 9.6484375,6.8511963 C9.747559,6.9501953 9.864868,6.999634 10.000244,6.999634 C10.000244,6.999634 13.500732,6.999634 13.500732,6.999634 C13.636169,6.999634 13.753357,6.9501953 13.852295,6.8511963 C13.951172,6.7523193 14.00061,6.635132 14.00061,6.4995117 C14.00061,6.4995117 14.00061,2.9991455 14.00061,2.9991455 C14.00061,2.8637695 13.951416,2.746582 13.852295,2.647705 ZM13.555237,9.000244 C13.555237,9.000244 12.054932,9.000244 12.054932,9.000244 C11.940369,9.000244 11.862305,9.059937 11.820557,9.17981 C11.601929,9.700562 11.463806,10.005371 11.406616,10.093994 C11.04187,10.687622 10.557434,11.154053 9.953308,11.492554 C9.348938,11.831299 8.697815,12.000366 7.999939,12.000366 C7.49469,12.000366 7.0075073,11.906616 6.5388794,11.719116 C6.0700073,11.531738 5.6505737,11.265869 5.280945,10.921997 C5.280945,10.921997 6.3513184,9.851685 6.3513184,9.851685 C6.4503174,9.752686 6.499756,9.635376 6.499756,9.500122 C6.499756,9.364746 6.4503174,9.247192 6.3513184,9.14856 C6.2523193,9.049316 6.135132,8.999878 5.999756,8.999878 C5.999756,8.999878 2.4992065,8.999878 2.4992065,8.999878 C2.3637085,8.999878 2.246521,9.049316 2.147522,9.14856 C2.048523,9.247192 1.9990845,9.364746 1.9990845,9.500122 C1.9990845,9.500122 1.9990845,13.00061 1.9990845,13.00061 C1.9990845,13.135742 2.048523,13.253296 2.147522,13.352173 C2.246643,13.45105 2.3638306,13.500732 2.4992065,13.500732 C2.6345825,13.500732 2.75177,13.45105 2.850769,13.352173 C2.850769,13.352173 3.8587646,12.343994 3.8587646,12.343994 C4.4160767,12.875244 5.050354,13.284424 5.7614746,13.570801 C6.472473,13.8573 7.208252,14.000488 7.968689,14.000488 C9.396118,14.000488 10.640991,13.566895 11.703674,12.699707 C12.766296,11.832275 13.464233,10.700684 13.7977295,9.3046875 C13.8029785,9.294434 13.805542,9.276001 13.805542,9.250122 C13.805542,9.182373 13.780579,9.123779 13.73114,9.074341 C13.68158,9.024658 13.622986,9.000244 13.555237,9.000244 Z"/>
</svg>